# xmcd CD database file generated by Grip 2.95
# 
# Track frame offsets:
#       150
#       10532
#       38505
#       44522
#       65405
#       70717
#       87102
#       103222
#       124622
#       127705
#       133565
#       149145
#       153985
#       173292
#       192177
#       200677
#       219167
#       237927
# 
# Disc length: 3183 seconds
# 
# Revision: 3
# Processed by: cddbd v1.4b41PL1 Copyright (c) Steve Scherf et al.
# Submitted via: Grip 2.95
# 
DISCID=ec0c6d12
DTITLE=No Time - No Time High
DYEAR=1900
DGENRE=
TTITLE0=welcome to No Time High
TTITLE1=East LA Taco Burrito
TTITLE2=Clown nose
TTITLE3=Smell my finger
TTITLE4=Interlude: the principal
TTITLE5=Too fat
TTITLE6=Lived in a shoe
TTITLE7=Famous
TTITLE8=Chuck Mangione
TTITLE9=Good morning! with Jeckle
TTITLE10=3rd world
TTITLE11=Interlude: the SAT
TTITLE12=Shecky Eichman
TTITLE13=Dick rap
TTITLE14=Stephen Hawking
TTITLE15=10,000 years
TTITLE16=bonus: eat all the old people
TTITLE17=the clit track
EXTD=
EXTT0=
EXTT1=
EXTT2=
EXTT3=
EXTT4=
EXTT5=
EXTT6=
EXTT7=
EXTT8=
EXTT9=
EXTT10=
EXTT11=
EXTT12=
EXTT13=
EXTT14=
EXTT15=
EXTT16=
EXTT17=
PLAYORDER=
